<svg xmlns="http://www.w3.org/2000/svg" width="240" height="161" viewBox="0 0 240 161">
  <g id="Group_47" data-name="Group 47" transform="translate(-299 -152)">
    <g id="Rectangle_62" data-name="Rectangle 62" transform="translate(299 152)" fill="rgba(0,30,72,0.6)" stroke="#fff" stroke-width="2" opacity="0.795">
      <rect width="240" height="161" rx="8" stroke="none"/>
      <rect x="1" y="1" width="238" height="159" rx="7" fill="none"/>
    </g>
    <text id="Your_Video_is_Playing" data-name="Your Video is Playing" transform="translate(332 185)" fill="#fff" font-size="17" font-family="HelveticaNeue-Bold, Helvetica Neue" font-weight="700"><tspan x="0" y="0">Your Video is Playing</tspan></text>
    <text id="Click_to_Unmute" data-name="Click to Unmute" transform="translate(352 294)" fill="#fff" font-size="17" font-family="HelveticaNeue-Bold, Helvetica Neue" font-weight="700"><tspan x="0" y="0">Click to Unmute</tspan></text>
    <path id="Path_81" data-name="Path 81" d="M72.581,69.63a2.483,2.483,0,0,0,3.467-.784,50.581,50.581,0,0,0,8.741-28.815,50.907,50.907,0,0,0-8.741-28.846,2.418,2.418,0,1,0-3.919,2.8A46.7,46.7,0,0,1,80,40.031a45.709,45.709,0,0,1-7.867,26.042A2.468,2.468,0,0,0,72.581,69.63ZM34.392,67.55a3.421,3.421,0,0,0,3.527-3.527V15.948a3.585,3.585,0,0,0-3.587-3.707c-1.477,0-2.442.723-4.069,2.17L16.1,26.98a1.05,1.05,0,0,1-.754.271H6.39c-4.28,0-6.39,2.14-6.39,6.691v12C0,50.49,2.11,52.63,6.39,52.63h8.952a1.051,1.051,0,0,1,.754.271l14.166,12.69C31.739,66.917,32.915,67.55,34.392,67.55ZM60.434,61.4a2.451,2.451,0,0,0,3.466-.723,35.793,35.793,0,0,0,6.3-20.647,35.6,35.6,0,0,0-6.3-20.677,2.474,2.474,0,0,0-3.466-.693,2.429,2.429,0,0,0-.422,3.557,32.024,32.024,0,0,1,5.335,17.814,31.405,31.405,0,0,1-5.335,17.814A2.453,2.453,0,0,0,60.434,61.4ZM32.643,61.19a.781.781,0,0,1-.512-.271L18.778,48.893a2.8,2.8,0,0,0-2.14-.814H6.6a1.526,1.526,0,0,1-1.748-1.748V33.55A1.537,1.537,0,0,1,6.6,31.8H16.638a2.727,2.727,0,0,0,2.14-.814L32.131,18.871a.9.9,0,0,1,.512-.241.4.4,0,0,1,.422.422V60.738A.4.4,0,0,1,32.643,61.19Zm15.764-7.927a2.445,2.445,0,0,0,3.376-.693,21.606,21.606,0,0,0,3.767-12.539,22.065,22.065,0,0,0-3.767-12.569,2.44,2.44,0,0,0-3.376-.693,2.471,2.471,0,0,0-.512,3.738,16.557,16.557,0,0,1,2.8,9.525,16.97,16.97,0,0,1-2.833,9.555A2.48,2.48,0,0,0,48.407,53.263Z" transform="translate(376.589 192.445)" fill="#fff"/>
    <line id="Line_5" data-name="Line 5" x2="81.048" y2="50.059" transform="translate(380.445 209.607)" fill="none" stroke="#a70000" stroke-width="4"/>
  </g>
</svg>
