<svg width="24" height="22" viewBox="0 0 24 22" fill="none" xmlns="http://www.w3.org/2000/svg">
<path d="M2.03611 3.56831C3.71918 1.572 6.26597 0.560059 9.60452 0.560059H10.8041V4.26L9.83965 4.47131C8.19617 4.83093 7.05293 5.53837 6.44112 6.57656C6.06564 7.21575 5.94208 7.89825 5.91569 8.43506H8.4049H9.60452C10.2679 8.43506 10.8041 9.02175 10.8041 9.74756V18.9351C10.8041 20.3827 9.72809 21.5601 8.4049 21.5601H1.20717C0.543774 21.5601 0.00754303 20.9734 0.00754303 20.2476V13.6851L0.0111419 9.85387C0.000345314 9.70818 -0.227583 6.25631 2.03611 3.56831ZM21.6008 21.5601H14.403C13.7396 21.5601 13.2034 20.9734 13.2034 20.2476V13.6851L13.207 9.85387C13.1962 9.70818 12.9683 6.25631 15.232 3.56831C16.915 1.572 19.4618 0.560059 22.8004 0.560059H24V4.26L23.0355 4.47131C21.392 4.83093 20.2488 5.53837 19.637 6.57656C19.2615 7.21575 19.1379 7.89825 19.1115 8.43506H21.6008H22.8004C23.4638 8.43506 24 9.02175 24 9.74756V18.9351C24 20.3827 22.9239 21.5601 21.6008 21.5601Z" fill="black"/>
</svg>
